<svg xmlns="http://www.w3.org/2000/svg" viewBox="0 0 120 380" width="120" height="380">
  <!-- Definiciones -->
  <defs>
    <linearGradient id="plasticGradient" x1="0%" y1="0%" x2="100%" y2="100%">
      <stop offset="0%" style="stop-color:#f8f8f8;stop-opacity:1" />
      <stop offset="50%" style="stop-color:#e8e8e8;stop-opacity:1" />
      <stop offset="100%" style="stop-color:#d8d8d8;stop-opacity:1" />
    </linearGradient>
    <filter id="shadow">
      <feDropShadow dx="2" dy="3" stdDeviation="3" flood-opacity="0.25"/>
    </filter>
    <linearGradient id="metalGradient" x1="0%" y1="0%" x2="100%" y2="100%">
      <stop offset="0%" style="stop-color:#b8936c;stop-opacity:1" />
      <stop offset="50%" style="stop-color:#8B7355;stop-opacity:1" />
      <stop offset="100%" style="stop-color:#6d5a47;stop-opacity:1" />
    </linearGradient>
  </defs>
  
  <!-- Cuerpo principal del interruptor -->
  <rect x="20" y="70" width="80" height="250" rx="6" fill="url(#plasticGradient)" stroke="#aaa" stroke-width="1.5" filter="url(#shadow)"/>
  
  <!-- Borde biselado superior -->
  <path d="M 20 70 L 20 75 L 100 75 L 100 70 Z" fill="#fff" opacity="0.3"/>
  
  <!-- Terminal superior -->
  <rect x="41" y="25" width="38" height="55" rx="4" fill="url(#metalGradient)" stroke="#5c4a3a" stroke-width="1"/>
  <circle cx="60" cy="42" r="9" fill="#555" stroke="#333" stroke-width="1.5"/>
  <circle cx="60" cy="42" r="3" fill="#444" stroke="#222" stroke-width="0.5"/>
  <line x1="57" y1="42" x2="63" y2="42" stroke="#666" stroke-width="0.8"/>
  
  <!-- Ventana de visualización con tornillo -->
  <rect x="32" y="90" width="56" height="35" rx="3" fill="#ffffff" stroke="#bbb" stroke-width="1" opacity="0.8"/>
  <circle cx="60" cy="100" r="4.5" fill="#666" stroke="#444" stroke-width="0.8"/>
  <line x1="58" y1="100" x2="62" y2="100" stroke="#888" stroke-width="0.8"/>
  
  <!-- Panel de identificación C10 -->
  <rect x="28" y="138" width="64" height="42" rx="3" fill="#ffffff" stroke="#ccc" stroke-width="1"/>
  <text x="60" y="167" font-family="Arial, sans-serif" font-size="30" font-weight="bold" fill="#000" text-anchor="middle">C10</text>
  
  <!-- Número de polo -->
  <circle cx="60" cy="115" r="7" fill="#e8e8e8" stroke="#999" stroke-width="1"/>
  <text x="60" y="119" font-family="Arial, sans-serif" font-size="10" font-weight="bold" fill="#333" text-anchor="middle">1</text>
  
  <!-- Palanca/Switch -->
  <rect x="40" y="188" width="40" height="75" rx="5" fill="#1a1a1a" stroke="#000" stroke-width="1.5"/>
  
  <!-- Parte superior de la palanca (negra con texto OFF) -->
  <rect x="45" y="195" width="30" height="30" rx="3" fill="#0a0a0a"/>
  <text x="60" y="215" font-family="Arial, sans-serif" font-size="12" font-weight="bold" fill="#ffffff" text-anchor="middle">OFF</text>
  
  <!-- Botón verde de estado OFF -->
  <rect x="47" y="232" width="26" height="22" rx="3" fill="#00a651"/>
  <text x="60" y="247" font-family="Arial, sans-serif" font-size="11" font-weight="bold" fill="#ffffff" text-anchor="middle">OFF</text>
  
  <!-- Área de marca (vacía) -->
  <rect x="25" y="272" width="70" height="22" fill="#ebebeb" stroke="#ccc" stroke-width="1"/>
  
  <!-- Terminal inferior -->
  <rect x="41" y="310" width="38" height="55" rx="4" fill="url(#metalGradient)" stroke="#5c4a3a" stroke-width="1"/>
  <circle cx="60" cy="338" r="9" fill="#555" stroke="#333" stroke-width="1.5"/>
  <circle cx="60" cy="338" r="3" fill="#444" stroke="#222" stroke-width="0.5"/>
  <line x1="57" y1="338" x2="63" y2="338" stroke="#666" stroke-width="0.8"/>
  
  <!-- Tornillos de conexión internos -->
  <circle cx="60" cy="105" r="4.5" fill="#777" stroke="#555" stroke-width="0.8"/>
  <line x1="58" y1="105" x2="62" y2="105" stroke="#999" stroke-width="0.8"/>
  <line x1="60" y1="103" x2="60" y2="107" stroke="#999" stroke-width="0.8"/>
  
  <circle cx="60" cy="295" r="4.5" fill="#777" stroke="#555" stroke-width="0.8"/>
  <line x1="58" y1="295" x2="62" y2="295" stroke="#999" stroke-width="0.8"/>
  <line x1="60" y1="293" x2="60" y2="297" stroke="#999" stroke-width="0.8"/>
  
  <!-- Ranuras laterales para riel DIN -->
  <rect x="18" y="160" width="3" height="100" fill="#999" opacity="0.5"/>
  <rect x="99" y="160" width="3" height="100" fill="#999" opacity="0.5"/>
  
  <!-- Detalles de textura del plástico -->
  <rect x="25" y="75" width="70" height="2" fill="#fff" opacity="0.2"/>
  <rect x="25" y="315" width="70" height="2" fill="#000" opacity="0.1"/>
  
  <!-- Certificación -->
  <text x="60" y="308" font-family="Arial, sans-serif" font-size="7" fill="#888" text-anchor="middle">IEC 60898</text>
</svg>