<svg xmlns="http://www.w3.org/2000/svg" viewBox="0 0 800 900" width="800" height="900">
  <!-- Definiciones -->
  <defs>
    <linearGradient id="metalPanel" x1="0%" y1="0%" x2="100%" y2="100%">
      <stop offset="0%" style="stop-color:#e8e8e8;stop-opacity:1" />
      <stop offset="50%" style="stop-color:#c0c0c0;stop-opacity:1" />
      <stop offset="100%" style="stop-color:#a0a0a0;stop-opacity:1" />
    </linearGradient>
    <linearGradient id="doorGradient" x1="0%" y1="0%" x2="100%" y2="100%">
      <stop offset="0%" style="stop-color:#f0f0f0;stop-opacity:1" />
      <stop offset="50%" style="stop-color:#d8d8d8;stop-opacity:1" />
      <stop offset="100%" style="stop-color:#c0c0c0;stop-opacity:1" />
    </linearGradient>
    <filter id="shadow">
      <feDropShadow dx="4" dy="4" stdDeviation="5" flood-opacity="0.4"/>
    </filter>
    <linearGradient id="copperBar" x1="0%" y1="0%" x2="100%" y2="100%">
      <stop offset="0%" style="stop-color:#d4a574;stop-opacity:1" />
      <stop offset="50%" style="stop-color:#b8936c;stop-opacity:1" />
      <stop offset="100%" style="stop-color:#8B7355;stop-opacity:1" />
    </linearGradient>
  </defs>
  
  <!-- Caja exterior del tablero -->
  <rect x="50" y="50" width="700" height="800" rx="10" fill="url(#metalPanel)" stroke="#666" stroke-width="3" filter="url(#shadow)"/>
  
  <!-- Marco interno -->
  <rect x="70" y="70" width="660" height="760" rx="5" fill="#f5f5f5" stroke="#888" stroke-width="2"/>
  
  <!-- Título del tablero -->
  <rect x="90" y="90" width="620" height="50" rx="5" fill="#2c3e50"/>
  <text x="400" y="123" font-family="Arial, sans-serif" font-size="24" font-weight="bold" fill="#fff" text-anchor="middle">TABLERO GENERAL DE DISTRIBUCIÓN</text>
  
  <!-- Datos técnicos del tablero -->
  <rect x="90" y="150" width="300" height="60" rx="3" fill="#fff" stroke="#ccc" stroke-width="1"/>
  <text x="100" y="170" font-family="Arial, sans-serif" font-size="11" font-weight="bold" fill="#000">DATOS TÉCNICOS:</text>
  <text x="100" y="188" font-family="Arial, sans-serif" font-size="10" fill="#333">Tensión nominal: 220V AC / 50Hz</text>
  <text x="100" y="203" font-family="Arial, sans-serif" font-size="10" fill="#333">Corriente nominal: 63A</text>
  
  <!-- Advertencia -->
  <rect x="410" y="150" width="300" height="60" rx="3" fill="#ffeb3b" stroke="#fbc02d" stroke-width="2"/>
  <text x="560" y="170" font-family="Arial, sans-serif" font-size="13" font-weight="bold" fill="#d32f2f" text-anchor="middle">⚠ PELIGRO</text>
  <text x="560" y="190" font-family="Arial, sans-serif" font-size="10" fill="#000" text-anchor="middle">ALTO VOLTAJE</text>
  <text x="560" y="205" font-family="Arial, sans-serif" font-size="9" fill="#000" text-anchor="middle">Solo personal autorizado</text>
  
  <!-- Riel DIN superior (para interruptor principal y diferencial) -->
  <rect x="100" y="230" width="600" height="15" fill="#b0b0b0" stroke="#808080" stroke-width="1"/>
  <rect x="100" y="235" width="600" height="5" fill="#909090"/>
  
  <!-- Líneas de montaje del riel -->
  <line x1="100" y1="232" x2="700" y2="232" stroke="#c0c0c0" stroke-width="1"/>
  <line x1="100" y1="243" x2="700" y2="243" stroke="#707070" stroke-width="1"/>
  
  <!-- INTERRUPTOR PRINCIPAL C40 (Bipolar) -->
  <g transform="translate(120, 250)">
    <rect x="0" y="0" width="85" height="130" rx="3" fill="#e8e8e8" stroke="#999" stroke-width="1"/>
    <rect x="5" y="5" width="75" height="120" rx="2" fill="#f0f0f0" stroke="#aaa" stroke-width="0.5"/>
    <text x="42.5" y="25" font-family="Arial, sans-serif" font-size="16" font-weight="bold" fill="#000" text-anchor="middle">C40</text>
    <circle x="42.5" cy="35" r="5" fill="#e0e0e0" stroke="#999" stroke-width="0.8"/>
    <text x="42.5" y="38" font-family="Arial, sans-serif" font-size="8" fill="#333" text-anchor="middle">1-2</text>
    <rect x="25" y="50" width="35" height="45" rx="3" fill="#1a1a1a" stroke="#000" stroke-width="1"/>
    <text x="42.5" y="70" font-family="Arial, sans-serif" font-size="10" font-weight="bold" fill="#fff" text-anchor="middle">OFF</text>
    <rect x="30" y="80" width="25" height="12" rx="2" fill="#00a651"/>
    <text x="42.5" y="89" font-family="Arial, sans-serif" font-size="8" font-weight="bold" fill="#fff" text-anchor="middle">OFF</text>
    <rect x="10" y="105" width="65" height="15" fill="#e0e0e0" stroke="#ccc" stroke-width="0.5"/>
    <text x="42.5" y="116" font-family="Arial, sans-serif" font-size="7" fill="#888" text-anchor="middle">IEC 60898</text>
  </g>
  
  <text x="162" y="395" font-family="Arial, sans-serif" font-size="9" font-weight="bold" fill="#d32f2f" text-anchor="middle">PRINCIPAL</text>
  
  <!-- INTERRUPTOR DIFERENCIAL 40A 30mA -->
  <g transform="translate(240, 250)">
    <rect x="0" y="0" width="110" height="130" rx="3" fill="#e8e8e8" stroke="#999" stroke-width="1"/>
    <rect x="5" y="5" width="100" height="120" rx="2" fill="#f0f0f0" stroke="#aaa" stroke-width="0.5"/>
    <rect x="40" y="8" width="25" height="12" rx="2" fill="#00a651"/>
    <text x="52.5" y="17" font-family="Arial, sans-serif" font-size="9" font-weight="bold" fill="#fff" text-anchor="middle">T</text>
    <text x="55" y="32" font-family="Arial, sans-serif" font-size="11" font-weight="bold" fill="#000" text-anchor="middle">40A 30mA</text>
    <rect x="30" y="50" width="45" height="25" rx="3" fill="#00a651" stroke="#008f44" stroke-width="1.5"/>
    <text x="52.5" y="67" font-family="Arial, sans-serif" font-size="11" font-weight="bold" fill="#fff" text-anchor="middle">TEST</text>
    <rect x="10" y="85" width="85" height="30" rx="2" fill="#fff" stroke="#ccc" stroke-width="0.5"/>
    <text x="52.5" y="97" font-family="Arial, sans-serif" font-size="7" fill="#333" text-anchor="middle">Tensión: 220V</text>
    <text x="52.5" y="107" font-family="Arial, sans-serif" font-size="7" fill="#333" text-anchor="middle">IΔn = 30mA</text>
  </g>
  
  <text x="295" y="395" font-family="Arial, sans-serif" font-size="9" font-weight="bold" fill="#1976d2" text-anchor="middle">DIFERENCIAL</text>
  
  <!-- Riel DIN inferior (para interruptores de circuitos) -->
  <rect x="100" y="430" width="600" height="15" fill="#b0b0b0" stroke="#808080" stroke-width="1"/>
  <rect x="100" y="435" width="600" height="5" fill="#909090"/>
  <line x1="100" y1="432" x2="700" y2="432" stroke="#c0c0c0" stroke-width="1"/>
  <line x1="100" y1="443" x2="700" y2="443" stroke="#707070" stroke-width="1"/>
  
  <!-- Texto "CIRCUITOS" -->
  <text x="400" y="425" font-family="Arial, sans-serif" font-size="11" font-weight="bold" fill="#555" text-anchor="middle">CIRCUITOS DERIVADOS</text>
  
  <!-- INTERRUPTOR C10 -->
  <g transform="translate(120, 450)">
    <rect x="0" y="0" width="60" height="130" rx="3" fill="#e8e8e8" stroke="#999" stroke-width="1"/>
    <rect x="3" y="3" width="54" height="124" rx="2" fill="#f0f0f0" stroke="#aaa" stroke-width="0.5"/>
    <text x="30" y="22" font-family="Arial, sans-serif" font-size="18" font-weight="bold" fill="#000" text-anchor="middle">C10</text>
    <circle cx="30" cy="30" r="4" fill="#e0e0e0" stroke="#999" stroke-width="0.8"/>
    <text x="30" y="33" font-family="Arial, sans-serif" font-size="7" fill="#333" text-anchor="middle">1</text>
    <rect x="15" y="45" width="30" height="50" rx="3" fill="#1a1a1a" stroke="#000" stroke-width="1"/>
    <text x="30" y="65" font-family="Arial, sans-serif" font-size="9" font-weight="bold" fill="#fff" text-anchor="middle">OFF</text>
    <rect x="18" y="78" width="24" height="12" rx="2" fill="#00a651"/>
    <text x="30" y="87" font-family="Arial, sans-serif" font-size="7" font-weight="bold" fill="#fff" text-anchor="middle">OFF</text>
    <rect x="8" y="103" width="44" height="15" fill="#e0e0e0" stroke="#ccc" stroke-width="0.5"/>
    <text x="30" y="113" font-family="Arial, sans-serif" font-size="6" fill="#888" text-anchor="middle">IEC 60898</text>
  </g>
  <text x="150" y="595" font-family="Arial, sans-serif" font-size="8" fill="#000" text-anchor="middle">Alumbrado</text>
  
  <!-- INTERRUPTOR C16 -->
  <g transform="translate(200, 450)">
    <rect x="0" y="0" width="60" height="130" rx="3" fill="#e8e8e8" stroke="#999" stroke-width="1"/>
    <rect x="3" y="3" width="54" height="124" rx="2" fill="#f0f0f0" stroke="#aaa" stroke-width="0.5"/>
    <text x="30" y="22" font-family="Arial, sans-serif" font-size="18" font-weight="bold" fill="#000" text-anchor="middle">C16</text>
    <circle cx="30" cy="30" r="4" fill="#e0e0e0" stroke="#999" stroke-width="0.8"/>
    <text x="30" y="33" font-family="Arial, sans-serif" font-size="7" fill="#333" text-anchor="middle">1</text>
    <rect x="15" y="45" width="30" height="50" rx="3" fill="#1a1a1a" stroke="#000" stroke-width="1"/>
    <text x="30" y="65" font-family="Arial, sans-serif" font-size="9" font-weight="bold" fill="#fff" text-anchor="middle">OFF</text>
    <rect x="18" y="78" width="24" height="12" rx="2" fill="#00a651"/>
    <text x="30" y="87" font-family="Arial, sans-serif" font-size="7" font-weight="bold" fill="#fff" text-anchor="middle">OFF</text>
    <rect x="8" y="103" width="44" height="15" fill="#e0e0e0" stroke="#ccc" stroke-width="0.5"/>
    <text x="30" y="113" font-family="Arial, sans-serif" font-size="6" fill="#888" text-anchor="middle">IEC 60898</text>
  </g>
  <text x="230" y="595" font-family="Arial, sans-serif" font-size="8" fill="#000" text-anchor="middle">T. Uso Gral</text>
  
  <!-- INTERRUPTOR C20 -->
  <g transform="translate(280, 450)">
    <rect x="0" y="0" width="60" height="130" rx="3" fill="#e8e8e8" stroke="#999" stroke-width="1"/>
    <rect x="3" y="3" width="54" height="124" rx="2" fill="#f0f0f0" stroke="#aaa" stroke-width="0.5"/>
    <text x="30" y="22" font-family="Arial, sans-serif" font-size="18" font-weight="bold" fill="#000" text-anchor="middle">C20</text>
    <circle cx="30" cy="30" r="4" fill="#e0e0e0" stroke="#999" stroke-width="0.8"/>
    <text x="30" y="33" font-family="Arial, sans-serif" font-size="7" fill="#333" text-anchor="middle">1</text>
    <rect x="15" y="45" width="30" height="50" rx="3" fill="#1a1a1a" stroke="#000" stroke-width="1"/>
    <text x="30" y="65" font-family="Arial, sans-serif" font-size="9" font-weight="bold" fill="#fff" text-anchor="middle">OFF</text>
    <rect x="18" y="78" width="24" height="12" rx="2" fill="#00a651"/>
    <text x="30" y="87" font-family="Arial, sans-serif" font-size="7" font-weight="bold" fill="#fff" text-anchor="middle">OFF</text>
    <rect x="8" y="103" width="44" height="15" fill="#e0e0e0" stroke="#ccc" stroke-width="0.5"/>
    <text x="30" y="113" font-family="Arial, sans-serif" font-size="6" fill="#888" text-anchor="middle">IEC 60898</text>
  </g>
  <text x="310" y="595" font-family="Arial, sans-serif" font-size="8" fill="#000" text-anchor="middle">Lavadora</text>
  
  <!-- INTERRUPTOR C25 -->
  <g transform="translate(360, 450)">
    <rect x="0" y="0" width="60" height="130" rx="3" fill="#e8e8e8" stroke="#999" stroke-width="1"/>
    <rect x="3" y="3" width="54" height="124" rx="2" fill="#f0f0f0" stroke="#aaa" stroke-width="0.5"/>
    <text x="30" y="22" font-family="Arial, sans-serif" font-size="18" font-weight="bold" fill="#000" text-anchor="middle">C25</text>
    <circle cx="30" cy="30" r="4" fill="#e0e0e0" stroke="#999" stroke-width="0.8"/>
    <text x="30" y="33" font-family="Arial, sans-serif" font-size="7" fill="#333" text-anchor="middle">1</text>
    <rect x="15" y="45" width="30" height="50" rx="3" fill="#1a1a1a" stroke="#000" stroke-width="1"/>
    <text x="30" y="65" font-family="Arial, sans-serif" font-size="9" font-weight="bold" fill="#fff" text-anchor="middle">OFF</text>
    <rect x="18" y="78" width="24" height="12" rx="2" fill="#00a651"/>
    <text x="30" y="87" font-family="Arial, sans-serif" font-size="7" font-weight="bold" fill="#fff" text-anchor="middle">OFF</text>
    <rect x="8" y="103" width="44" height="15" fill="#e0e0e0" stroke="#ccc" stroke-width="0.5"/>
    <text x="30" y="113" font-family="Arial, sans-serif" font-size="6" fill="#888" text-anchor="middle">IEC 60898</text>
  </g>
  <text x="390" y="595" font-family="Arial, sans-serif" font-size="8" fill="#000" text-anchor="middle">Cocina</text>
  
  <!-- Espacio para más interruptores -->
  <rect x="440" y="453" width="60" height="127" rx="3" fill="none" stroke="#ccc" stroke-width="1" stroke-dasharray="4,4"/>
  <text x="470" y="517" font-family="Arial, sans-serif" font-size="10" fill="#999" text-anchor="middle">Reserva</text>
  
  <rect x="520" y="453" width="60" height="127" rx="3" fill="none" stroke="#ccc" stroke-width="1" stroke-dasharray="4,4"/>
  <text x="550" y="517" font-family="Arial, sans-serif" font-size="10" fill="#999" text-anchor="middle">Reserva</text>
  
  <rect x="600" y="453" width="60" height="127" rx="3" fill="none" stroke="#ccc" stroke-width="1" stroke-dasharray="4,4"/>
  <text x="630" y="517" font-family="Arial, sans-serif" font-size="10" fill="#999" text-anchor="middle">Reserva</text>
  
  <!-- BARRAS DE DISTRIBUCIÓN -->
  <text x="400" y="635" font-family="Arial, sans-serif" font-size="11" font-weight="bold" fill="#555" text-anchor="middle">BARRAS DE DISTRIBUCIÓN</text>
  
  <!-- Barra de Neutro (AZUL) -->
  <rect x="100" y="650" width="280" height="25" rx="3" fill="url(#copperBar)" stroke="#6d5a47" stroke-width="2"/>
  <rect x="105" y="655" width="270" height="15" rx="2" fill="#4169E1" opacity="0.7"/>
  <text x="130" y="668" font-family="Arial, sans-serif" font-size="11" font-weight="bold" fill="#fff">BARRA DE NEUTRO (N)</text>
  
  <!-- Tornillos de conexión en barra neutro -->
  <circle cx="120" cy="662" r="4" fill="#555" stroke="#333" stroke-width="0.8"/>
  <circle cx="160" cy="662" r="4" fill="#555" stroke="#333" stroke-width="0.8"/>
  <circle cx="200" cy="662" r="4" fill="#555" stroke="#333" stroke-width="0.8"/>
  <circle cx="240" cy="662" r="4" fill="#555" stroke="#333" stroke-width="0.8"/>
  <circle cx="280" cy="662" r="4" fill="#555" stroke="#333" stroke-width="0.8"/>
  <circle cx="320" cy="662" r="4" fill="#555" stroke="#333" stroke-width="0.8"/>
  <circle cx="360" cy="662" r="4" fill="#555" stroke="#333" stroke-width="0.8"/>
  
  <!-- Barra de Tierra (AMARILLO-VERDE) -->
  <rect x="420" y="650" width="280" height="25" rx="3" fill="url(#copperBar)" stroke="#6d5a47" stroke-width="2"/>
  <rect x="425" y="655" width="135" height="15" rx="2" fill="#FFD700" opacity="0.7"/>
  <rect x="560" y="655" width="135" height="15" rx="2" fill="#32CD32" opacity="0.7"/>
  <text x="450" y="668" font-family="Arial, sans-serif" font-size="11" font-weight="bold" fill="#000">BARRA DE TIERRA (PE)</text>
  
  <!-- Tornillos de conexión en barra tierra -->
  <circle cx="440" cy="662" r="4" fill="#555" stroke="#333" stroke-width="0.8"/>
  <circle cx="480" cy="662" r="4" fill="#555" stroke="#333" stroke-width="0.8"/>
  <circle cx="520" cy="662" r="4" fill="#555" stroke="#333" stroke-width="0.8"/>
  <circle cx="560" cy="662" r="4" fill="#555" stroke="#333" stroke-width="0.8"/>
  <circle cx="600" cy="662" r="4" fill="#555" stroke="#333" stroke-width="0.8"/>
  <circle cx="640" cy="662" r="4" fill="#555" stroke="#333" stroke-width="0.8"/>
  <circle cx="680" cy="662" r="4" fill="#555" stroke="#333" stroke-width="0.8"/>
  
  <!-- CABLEADO (simulación entrada principal) -->
  <text x="400" y="710" font-family="Arial, sans-serif" font-size="11" font-weight="bold" fill="#555" text-anchor="middle">ACOMETIDA PRINCIPAL</text>
  
  <!-- Cables de entrada -->
  <g id="entrada-cables">
    <rect x="180" y="720" width="20" height="60" rx="3" fill="#8B4513" stroke="#5c4a3a" stroke-width="1"/>
    <text x="190" y="760" font-family="Arial, sans-serif" font-size="8" font-weight="bold" fill="#fff" text-anchor="middle" transform="rotate(-90 190 760)">FASE</text>
    
    <rect x="220" y="720" width="20" height="60" rx="3" fill="#4169E1" stroke="#2e4a8f" stroke-width="1"/>
    <text x="230" y="760" font-family="Arial, sans-serif" font-size="8" font-weight="bold" fill="#fff" text-anchor="middle" transform="rotate(-90 230 760)">NEUTRO</text>
    
    <rect x="260" y="720" width="20" height="60" rx="3" fill="#FFD700" stroke="#daa520" stroke-width="1"/>
    <rect x="260" y="740" width="20" height="20" fill="#32CD32" stroke="#228b22" stroke-width="1"/>
    <text x="270" y="755" font-family="Arial, sans-serif" font-size="8" font-weight="bold" fill="#000" text-anchor="middle" transform="rotate(-90 270 755)">TIERRA</text>
  </g>
  
  <!-- Cuadro de circuitos -->
  <rect x="440" y="710" width="250" height="110" rx="3" fill="#fff" stroke="#ccc" stroke-width="1"/>
  <text x="565" y="730" font-family="Arial, sans-serif" font-size="11" font-weight="bold" fill="#000" text-anchor="middle">CUADRO DE CIRCUITOS</text>
  
  <text x="450" y="750" font-family="Arial, sans-serif" font-size="9" fill="#333">• C10 - Alumbrado (1.5mm²)</text>
  <text x="450" y="765" font-family="Arial, sans-serif" font-size="9" fill="#333">• C16 - Tomas uso general (2.5mm²)</text>
  <text x="450" y="780" font-family="Arial, sans-serif" font-size="9" fill="#333">• C20 - Lavadora (4.0mm²)</text>
  <text x="450" y="795" font-family="Arial, sans-serif" font-size="9" fill="#333">• C25 - Cocina (6.0mm²)</text>
  <text x="450" y="810" font-family="Arial, sans-serif" font-size="9" fill="#333">• C40 - Principal / Diferencial 30mA</text>
  
  <!-- Tornillos de montaje del tablero -->
  <circle cx="80" cy="80" r="6" fill="#666" stroke="#444" stroke-width="1.5"/>
  <circle cx="720" cy="80" r="6" fill="#666" stroke="#444" stroke-width="1.5"/>
  <circle cx="80" cy="820" r="6" fill="#666" stroke="#444" stroke-width="1.5"/>
  <circle cx="720" cy="820" r="6" fill="#666" stroke="#444" stroke-width="1.5"/>
  
  <!-- Detalles de bisagra de puerta (simulación) -->
  <rect x="60" y="350" width="15" height="50" rx="2" fill="#808080" stroke="#555" stroke-width="1"/>
  <circle cx="67.5" cy="360" r="3" fill="#555"/>
  <circle cx="67.5" cy="375" r="3" fill="#555"/>
  <circle cx="67.5" cy="390" r="3" fill="#555"/>
  
  <rect x="60" y="500" width="15" height="50" rx="2" fill="#808080" stroke="#555" stroke-width="1"/>
  <circle cx="67.5" cy="510" r="3" fill="#555"/>
  <circle cx="67.5" cy="525" r="3" fill="#555"/>
  <circle cx="67.5" cy="540" r="3" fill="#555"/>
</svg>